<?xml version="1.0" encoding="iso-8859-1"?>
<!-- Generator: Adobe Illustrator 19.0.0, SVG Export Plug-In . SVG Version: 6.00 Build 0)  -->
<svg version="1.1" id="Capa_1" xmlns="http://www.w3.org/2000/svg" xmlns:xlink="http://www.w3.org/1999/xlink" x="0px" y="0px"
	 viewBox="0 0 512 512" style="enable-background:new 0 0 512 512;" xml:space="preserve">
<path style="fill:#C3EA21;" d="M383.51,149.331c0,0,37.245,28.756,76.628,15.598S512,106.402,512,106.402
	s-37.245-28.756-76.628-15.598S383.51,149.331,383.51,149.331z"/>
<path style="fill:#8ADB53;" d="M383.51,149.331c0,0,37.245,28.756,76.628,15.598S512,106.402,512,106.402L383.51,149.331z"/>
<path style="fill:#4FC16E;" d="M360.882,441.818c-25.183,0-45.671-20.488-45.671-45.671v-78.146c0-8.641-7.03-15.671-15.671-15.671
	h-30.671v-30h30.671c25.183,0,45.671,20.488,45.671,45.671v78.146c0,8.641,7.03,15.671,15.671,15.671s15.671-7.03,15.671-15.671
	V67.096h30v329.05C406.553,421.33,386.064,441.818,360.882,441.818z"/>
<polygon style="fill:#C3EA21;" points="286.393,490.661 256.393,490.661 75.184,490.661 45.184,490.661 45.184,113.602 
	286.393,113.602 "/>
<polygon style="fill:#8ADB53;" points="286.393,490.661 271.393,490.661 180.788,490.661 165.788,490.661 165.788,113.602 
	286.393,113.602 "/>
<path style="fill:#FFFFFF;" d="M223.31,282.378H108.268V176.685H223.31V282.378z"/>
<path style="fill:#EBEBEC;" d="M223.31,282.378h-57.521V176.685h57.521V282.378z"/>
<rect y="475.66" style="fill:#CACACD;" width="331.58" height="30"/>
<rect x="165.79" y="475.66" style="fill:#A9A8AE;" width="165.79" height="30"/>
<path style="fill:#C3EA21;" d="M406.553,68.313c0,0-37.245,28.756-76.628,15.598s-51.862-58.527-51.862-58.527
	s37.245-28.756,76.628-15.598S406.553,68.313,406.553,68.313z"/>
<path style="fill:#8ADB53;" d="M406.553,68.313c0,0-37.245,28.756-76.628,15.598s-51.862-58.527-51.862-58.527L406.553,68.313z"/>
<g>
</g>
<g>
</g>
<g>
</g>
<g>
</g>
<g>
</g>
<g>
</g>
<g>
</g>
<g>
</g>
<g>
</g>
<g>
</g>
<g>
</g>
<g>
</g>
<g>
</g>
<g>
</g>
<g>
</g>
</svg>
