<?xml version="1.0" encoding="iso-8859-1"?>
<!-- Generator: Adobe Illustrator 19.0.0, SVG Export Plug-In . SVG Version: 6.00 Build 0)  -->
<svg version="1.1" id="Capa_1" xmlns="http://www.w3.org/2000/svg" xmlns:xlink="http://www.w3.org/1999/xlink" x="0px" y="0px"
	 viewBox="0 0 512 512" style="enable-background:new 0 0 512 512;" xml:space="preserve">
<path style="fill:#C3EA21;" d="M90.344,360.908c-19.994-31.406-30.563-67.785-30.563-105.206
	c0-87.377,57.597-162.803,138.552-187.601l-14.161,22.178l25.296,16.152l41.473-64.957L185.985,0l-16.152,25.297l21.325,13.615
	c-94.204,28.081-161.39,115.47-161.39,216.79c0,43.14,12.192,85.094,35.258,121.324c22.44,35.248,54.102,63.581,91.56,81.933
	l13.206-26.951C137.291,416.085,109.819,391.498,90.344,360.908z"/>
<path style="fill:#8ADB53;" d="M482.232,256.298c0-43.14-12.192-85.094-35.258-121.324c-22.44-35.248-54.102-63.581-91.56-81.933
	l-13.206,26.951c32.5,15.924,59.973,40.51,79.448,71.1c19.994,31.406,30.563,67.785,30.563,105.206
	c0,87.376-57.597,162.803-138.552,187.601l14.161-22.178l-25.297-16.152l-41.473,64.957L326.015,512l16.152-25.297l-21.325-13.615
	C415.046,445.007,482.232,357.618,482.232,256.298z"/>
<polygon style="fill:#FBDA35;" points="348.1,230.586 264.066,230.586 276.608,98.975 163.899,283.704 247.2,283.704 
	232.522,413.025 "/>
<g>
</g>
<g>
</g>
<g>
</g>
<g>
</g>
<g>
</g>
<g>
</g>
<g>
</g>
<g>
</g>
<g>
</g>
<g>
</g>
<g>
</g>
<g>
</g>
<g>
</g>
<g>
</g>
<g>
</g>
</svg>
